<svg id="svg" version="1.1" xmlns="http://www.w3.org/2000/svg" xmlns:xlink="http://www.w3.org/1999/xlink" width="400" height="400" viewBox="0, 0, 400,400"><g id="svgg"><path id="path0" d="M0.000 72.183 C 0.000 112.923,0.151 144.367,0.347 144.367 C 0.539 144.367,0.815 143.461,0.962 142.354 C 1.121 141.155,1.464 140.251,1.811 140.118 C 2.131 139.995,2.393 139.487,2.393 138.989 C 2.393 138.491,2.650 137.870,2.965 137.609 C 3.280 137.347,3.652 136.562,3.791 135.865 C 3.931 135.167,4.378 133.878,4.786 133.001 C 6.379 129.570,8.137 125.203,11.025 117.500 C 17.833 99.345,17.189 99.881,32.104 99.934 C 37.972 99.955,42.678 100.161,44.267 100.467 C 51.848 101.926,68.158 101.384,71.057 99.576 C 73.345 98.150,97.480 73.403,98.550 71.386 C 99.812 69.005,100.173 52.611,99.127 45.114 C 98.718 42.185,98.504 37.664,98.504 31.963 C 98.504 17.392,98.154 17.832,114.766 11.539 C 124.317 7.922,126.202 7.164,128.016 6.214 C 128.564 5.927,129.551 5.564,130.209 5.407 C 130.867 5.250,131.675 4.890,132.004 4.606 C 132.333 4.322,133.257 3.972,134.058 3.829 C 134.858 3.685,135.733 3.304,136.001 2.980 C 136.269 2.657,136.856 2.393,137.306 2.393 C 137.755 2.393,138.437 2.108,138.821 1.761 C 139.205 1.413,140.251 1.031,141.146 0.911 C 146.847 0.146,135.665 0.000,71.386 0.000 L 0.000 0.000 0.000 72.183 M147.557 0.287 C 147.557 0.444,148.446 1.476,149.533 2.580 C 150.620 3.683,152.549 5.959,153.820 7.636 C 159.307 14.875,175.345 34.151,177.339 35.901 C 180.189 38.403,180.033 38.384,198.008 38.396 C 218.308 38.409,216.262 39.098,224.190 29.586 C 232.308 19.845,238.919 11.714,241.813 7.910 C 243.314 5.937,245.333 3.497,246.299 2.488 C 247.265 1.480,248.056 0.508,248.056 0.327 C 248.056 0.147,225.444 0.000,197.807 0.000 C 170.169 0.000,147.557 0.129,147.557 0.287 M253.012 0.353 C 253.132 0.547,254.051 0.829,255.053 0.979 C 256.056 1.129,256.974 1.509,257.095 1.823 C 257.215 2.136,257.730 2.393,258.240 2.393 C 258.749 2.393,259.413 2.640,259.715 2.942 C 260.017 3.245,260.882 3.628,261.638 3.793 C 262.393 3.959,263.636 4.429,264.401 4.839 C 265.165 5.248,266.003 5.583,266.262 5.583 C 266.522 5.583,267.662 6.049,268.797 6.619 C 269.931 7.189,275.554 9.430,281.292 11.600 C 294.487 16.590,296.071 17.671,297.079 22.367 C 297.702 25.273,297.586 38.508,296.892 43.669 C 295.328 55.298,295.737 67.479,297.807 70.991 C 299.555 73.955,325.273 99.098,327.671 100.188 C 330.484 101.465,342.999 101.712,351.128 100.650 C 358.225 99.723,373.401 99.599,375.872 100.448 C 380.560 102.058,380.574 102.086,392.953 135.194 C 393.404 136.401,394.277 138.334,394.893 139.491 C 395.508 140.647,396.018 142.083,396.025 142.681 C 396.032 143.279,396.301 144.117,396.623 144.543 C 398.863 147.504,398.082 148.307,373.103 168.705 C 357.685 181.296,358.819 178.975,359.270 197.009 C 359.605 210.408,359.607 210.422,361.835 213.619 C 363.074 215.396,386.102 234.711,393.220 239.943 C 394.427 240.830,396.357 242.480,397.509 243.609 C 398.662 244.739,399.694 245.663,399.803 245.663 C 399.911 245.663,400.000 190.389,400.000 122.832 L 400.000 0.000 326.397 0.000 C 283.831 0.000,252.886 0.149,253.012 0.353 M190.429 81.607 C 189.771 81.704,186.630 82.144,183.450 82.584 C 146.468 87.703,114.325 109.183,96.091 140.964 C 77.161 173.956,74.896 212.077,89.799 246.859 C 119.019 315.058,202.839 340.000,264.463 298.831 C 307.825 269.863,327.452 215.152,312.221 165.703 C 297.136 116.724,251.408 82.186,200.798 81.546 C 195.753 81.483,191.087 81.510,190.429 81.607 M211.285 120.996 C 228.794 125.406,243.252 139.253,248.192 156.341 C 250.703 165.029,250.960 167.909,251.213 190.229 C 251.513 216.742,251.594 216.962,261.898 219.360 C 273.549 222.072,279.751 232.048,273.917 238.692 C 271.480 241.468,276.676 241.296,198.588 241.181 L 128.215 241.077 126.359 239.986 C 121.447 237.098,121.630 229.657,126.742 224.394 C 129.150 221.915,131.312 220.831,136.857 219.324 C 147.322 216.478,147.239 216.705,147.570 190.229 C 147.888 164.766,148.542 160.237,153.384 149.967 C 164.026 127.397,188.358 115.222,211.285 120.996 M0.000 200.199 C 0.000 228.275,0.098 251.246,0.218 251.246 C 0.338 251.246,1.252 250.442,2.249 249.459 C 3.246 248.476,5.436 246.642,7.116 245.384 C 8.795 244.125,12.246 241.385,14.784 239.294 C 17.321 237.204,22.746 232.738,26.839 229.370 C 39.380 219.050,39.003 219.772,38.300 207.378 C 37.896 200.248,37.890 197.025,38.274 191.685 C 39.039 181.048,38.996 180.957,29.388 173.008 C 16.407 162.268,10.328 157.327,7.261 155.025 C 5.574 153.758,3.379 151.918,2.382 150.937 C 1.386 149.956,0.442 149.153,0.285 149.153 C 0.128 149.153,0.000 172.124,0.000 200.199 M399.089 252.075 C 398.969 252.969,398.587 254.015,398.239 254.399 C 397.892 254.783,397.607 255.465,397.607 255.915 C 397.607 256.364,397.336 256.957,397.005 257.231 C 396.674 257.506,396.293 258.422,396.158 259.267 C 396.023 260.111,395.666 261.007,395.364 261.258 C 395.062 261.508,394.816 261.976,394.816 262.297 C 394.816 262.619,394.212 264.257,393.474 265.937 C 392.737 267.618,390.475 273.390,388.448 278.764 C 382.403 294.791,382.804 294.456,369.492 294.651 C 362.585 294.752,359.038 294.621,355.135 294.118 C 351.229 293.615,347.687 293.484,340.778 293.586 C 329.603 293.751,329.179 293.884,324.847 298.600 C 323.300 300.283,316.768 306.963,310.332 313.443 C 297.223 326.641,296.903 327.059,296.257 331.834 C 295.703 335.935,296.048 347.753,296.897 353.739 C 297.252 356.249,297.494 360.994,297.499 365.584 C 297.515 379.899,297.652 379.733,280.487 386.203 C 269.546 390.327,265.807 391.788,263.384 392.885 C 262.492 393.289,261.575 393.619,261.347 393.619 C 261.118 393.619,259.726 394.247,258.253 395.015 C 256.780 395.783,255.072 396.411,254.457 396.411 C 253.841 396.411,253.115 396.680,252.841 397.009 C 251.003 399.224,248.248 397.442,242.617 390.394 C 239.203 386.121,230.655 375.685,224.423 368.180 C 216.644 358.811,217.916 359.241,198.405 359.401 L 183.649 359.521 181.456 360.755 C 179.073 362.096,176.715 364.710,166.383 377.468 C 163.185 381.416,159.653 385.723,158.533 387.039 C 157.414 388.355,155.716 390.508,154.759 391.825 C 153.803 393.141,152.150 395.086,151.087 396.147 C 150.023 397.209,149.153 398.241,149.153 398.440 C 149.153 398.658,199.437 398.804,274.576 398.804 L 400.000 398.804 400.000 324.626 C 400.000 257.821,399.856 246.358,399.089 252.075 M212.675 256.716 C 220.563 260.347,212.154 271.918,200.598 273.335 C 187.194 274.979,175.669 258.169,188.634 255.884 C 192.353 255.229,210.834 255.869,212.675 256.716 M0.000 327.418 L 0.000 398.804 72.207 398.804 C 112.734 398.804,144.320 398.652,144.201 398.459 C 144.083 398.269,143.251 398.015,142.352 397.894 C 141.452 397.774,140.402 397.390,140.017 397.043 C 139.633 396.695,139.032 396.411,138.681 396.411 C 138.330 396.411,137.796 396.163,137.493 395.861 C 137.191 395.559,136.326 395.176,135.571 395.010 C 134.815 394.845,133.572 394.374,132.808 393.965 C 132.043 393.555,131.205 393.220,130.946 393.220 C 130.687 393.220,129.561 392.762,128.444 392.201 C 127.328 391.640,125.474 390.850,124.324 390.445 C 106.092 384.021,101.846 381.770,100.433 377.777 C 99.660 375.593,99.705 359.227,100.499 353.938 C 101.615 346.497,101.345 330.539,100.056 327.792 C 98.750 325.006,75.805 301.960,72.685 300.299 C 70.228 298.991,53.122 298.601,45.386 299.677 C 42.409 300.091,37.899 300.298,31.920 300.297 C 17.287 300.293,17.770 300.693,11.165 283.151 C 9.142 277.777,7.088 272.572,6.602 271.585 C 6.116 270.598,5.584 269.252,5.420 268.594 C 5.256 267.936,4.890 267.129,4.606 266.800 C 4.322 266.471,3.972 265.546,3.829 264.746 C 3.685 263.945,3.304 263.071,2.980 262.803 C 2.657 262.535,2.393 261.947,2.393 261.498 C 2.393 261.049,2.108 260.367,1.761 259.983 C 1.413 259.598,1.031 258.552,0.911 257.658 C 0.146 251.957,0.000 263.138,0.000 327.418 " stroke="none" fill-opacity="0"></path><path id="path1" d="M142.772 0.346 C 142.772 0.537,142.040 0.791,141.146 0.911 C 140.251 1.031,139.205 1.413,138.821 1.761 C 138.437 2.108,137.755 2.393,137.306 2.393 C 136.856 2.393,136.269 2.657,136.001 2.980 C 135.733 3.304,134.858 3.685,134.058 3.829 C 133.257 3.972,132.333 4.322,132.004 4.606 C 131.675 4.890,130.867 5.250,130.209 5.407 C 129.551 5.564,128.564 5.927,128.016 6.214 C 126.202 7.164,124.317 7.922,114.766 11.539 C 98.154 17.832,98.504 17.392,98.504 31.963 C 98.504 37.664,98.718 42.185,99.127 45.114 C 100.173 52.611,99.812 69.005,98.550 71.386 C 97.480 73.403,73.345 98.150,71.057 99.576 C 68.158 101.384,51.848 101.926,44.267 100.467 C 42.678 100.161,37.972 99.955,32.104 99.934 C 17.189 99.881,17.833 99.345,11.025 117.500 C 8.137 125.203,6.379 129.570,4.786 133.001 C 4.378 133.878,3.931 135.167,3.791 135.865 C 3.652 136.562,3.280 137.347,2.965 137.609 C 2.650 137.870,2.393 138.491,2.393 138.989 C 2.393 139.487,2.131 139.995,1.811 140.118 C 1.464 140.251,1.121 141.155,0.962 142.354 C 0.815 143.461,0.539 144.367,0.347 144.367 C 0.156 144.367,0.000 145.344,0.000 146.538 C 0.000 149.016,1.337 150.571,7.371 155.105 C 10.338 157.335,16.529 162.369,29.388 173.008 C 38.996 180.957,39.039 181.048,38.274 191.685 C 37.890 197.025,37.896 200.248,38.300 207.378 C 39.003 219.772,39.380 219.050,26.839 229.370 C 22.746 232.738,17.321 237.204,14.784 239.294 C 12.246 241.385,8.824 244.105,7.178 245.338 C 1.272 249.767,0.000 251.269,0.000 253.816 C 0.000 255.035,0.156 256.032,0.346 256.032 C 0.537 256.032,0.791 256.764,0.911 257.658 C 1.031 258.552,1.413 259.598,1.761 259.983 C 2.108 260.367,2.393 261.049,2.393 261.498 C 2.393 261.947,2.657 262.535,2.980 262.803 C 3.304 263.071,3.685 263.945,3.829 264.746 C 3.972 265.546,4.322 266.471,4.606 266.800 C 4.890 267.129,5.256 267.936,5.420 268.594 C 5.584 269.252,6.116 270.598,6.602 271.585 C 7.088 272.572,9.142 277.777,11.165 283.151 C 17.770 300.693,17.287 300.293,31.920 300.297 C 37.899 300.298,42.409 300.091,45.386 299.677 C 53.122 298.601,70.228 298.991,72.685 300.299 C 75.805 301.960,98.750 325.006,100.056 327.792 C 101.345 330.539,101.615 346.497,100.499 353.938 C 99.705 359.227,99.660 375.593,100.433 377.777 C 101.846 381.770,106.092 384.021,124.324 390.445 C 125.474 390.850,127.328 391.640,128.444 392.201 C 129.561 392.762,130.687 393.220,130.946 393.220 C 131.205 393.220,132.043 393.555,132.808 393.965 C 133.572 394.374,134.815 394.845,135.571 395.010 C 136.326 395.176,137.191 395.559,137.493 395.861 C 137.796 396.163,138.367 396.411,138.763 396.411 C 139.159 396.411,139.703 396.675,139.971 396.998 C 140.240 397.322,141.114 397.690,141.914 397.818 C 142.715 397.945,143.682 398.219,144.062 398.427 C 144.949 398.909,149.153 398.921,149.153 398.440 C 149.153 398.241,150.023 397.209,151.087 396.147 C 152.150 395.086,153.803 393.141,154.759 391.825 C 155.716 390.508,157.414 388.355,158.533 387.039 C 159.653 385.723,163.185 381.416,166.383 377.468 C 176.715 364.710,179.073 362.096,181.456 360.755 L 183.649 359.521 198.405 359.401 C 217.916 359.241,216.644 358.811,224.423 368.180 C 230.655 375.685,239.203 386.121,242.617 390.394 C 248.248 397.442,251.003 399.224,252.841 397.009 C 253.115 396.680,253.841 396.411,254.457 396.411 C 255.072 396.411,256.780 395.783,258.253 395.015 C 259.726 394.247,261.118 393.619,261.347 393.619 C 261.575 393.619,262.492 393.289,263.384 392.885 C 265.807 391.788,269.546 390.327,280.487 386.203 C 297.652 379.733,297.515 379.899,297.499 365.584 C 297.494 360.994,297.252 356.249,296.897 353.739 C 296.048 347.753,295.703 335.935,296.257 331.834 C 296.903 327.059,297.223 326.641,310.332 313.443 C 316.768 306.963,323.300 300.283,324.847 298.600 C 329.179 293.884,329.603 293.751,340.778 293.586 C 347.687 293.484,351.229 293.615,355.135 294.118 C 359.038 294.621,362.585 294.752,369.492 294.651 C 382.804 294.456,382.403 294.791,388.448 278.764 C 390.475 273.390,392.737 267.618,393.474 265.937 C 394.212 264.257,394.816 262.619,394.816 262.297 C 394.816 261.976,395.062 261.508,395.364 261.258 C 395.666 261.007,396.023 260.111,396.158 259.267 C 396.293 258.422,396.674 257.506,397.005 257.231 C 397.336 256.957,397.607 256.364,397.607 255.915 C 397.607 255.465,397.892 254.783,398.239 254.399 C 398.587 254.015,398.969 252.969,399.089 252.075 C 399.209 251.180,399.463 250.449,399.654 250.449 C 399.844 250.449,400.000 249.446,400.000 248.221 C 400.000 245.744,398.356 243.739,393.220 239.949 C 390.731 238.113,383.710 232.411,371.424 222.250 C 359.028 211.998,359.678 213.347,359.270 197.009 C 358.819 178.975,357.685 181.296,373.103 168.705 C 398.082 148.307,398.863 147.504,396.623 144.543 C 396.301 144.117,396.032 143.279,396.025 142.681 C 396.018 142.083,395.508 140.647,394.893 139.491 C 394.277 138.334,393.404 136.401,392.953 135.194 C 380.574 102.086,380.560 102.058,375.872 100.448 C 373.401 99.599,358.225 99.723,351.128 100.650 C 342.999 101.712,330.484 101.465,327.671 100.188 C 325.273 99.098,299.555 73.955,297.807 70.991 C 295.737 67.479,295.328 55.298,296.892 43.669 C 297.586 38.508,297.702 25.273,297.079 22.367 C 296.071 17.671,294.487 16.590,281.292 11.600 C 275.554 9.430,269.931 7.189,268.797 6.619 C 267.662 6.049,266.522 5.583,266.262 5.583 C 266.003 5.583,265.165 5.248,264.401 4.839 C 263.636 4.429,262.393 3.959,261.638 3.793 C 260.882 3.628,260.017 3.245,259.715 2.942 C 259.413 2.640,258.749 2.393,258.240 2.393 C 257.730 2.393,257.215 2.136,257.095 1.823 C 256.974 1.509,256.056 1.129,255.053 0.979 C 254.051 0.829,253.132 0.547,253.012 0.353 C 252.738 -0.092,248.056 -0.116,248.056 0.327 C 248.056 0.508,247.265 1.480,246.299 2.488 C 245.333 3.497,243.314 5.937,241.813 7.910 C 238.919 11.714,232.308 19.845,224.190 29.586 C 216.262 39.098,218.308 38.409,198.008 38.396 C 180.033 38.384,180.189 38.403,177.339 35.901 C 175.365 34.168,159.402 14.991,153.856 7.691 C 149.165 1.515,147.408 0.000,144.937 0.000 C 143.746 0.000,142.772 0.156,142.772 0.346 M216.871 82.902 C 276.142 93.549,317.292 141.731,317.219 200.399 C 317.154 252.713,282.269 299.230,231.883 314.186 C 174.959 331.083,113.383 301.905,89.799 246.859 C 74.896 212.077,77.161 173.956,96.091 140.964 C 114.325 109.183,146.468 87.703,183.450 82.584 C 186.630 82.144,189.771 81.704,190.429 81.607 C 194.880 80.950,210.172 81.699,216.871 82.902 M190.429 120.427 C 173.823 124.033,160.665 134.525,153.384 149.967 C 148.542 160.237,147.888 164.766,147.570 190.229 C 147.239 216.705,147.322 216.478,136.857 219.324 C 131.312 220.831,129.150 221.915,126.742 224.394 C 121.630 229.657,121.447 237.098,126.359 239.986 L 128.215 241.077 198.588 241.181 C 276.676 241.296,271.480 241.468,273.917 238.692 C 279.751 232.048,273.549 222.072,261.898 219.360 C 251.594 216.962,251.513 216.742,251.213 190.229 C 250.960 167.909,250.703 165.029,248.192 156.341 C 241.093 131.783,214.443 115.213,190.429 120.427 M188.634 255.884 C 175.669 258.169,187.194 274.979,200.598 273.335 C 212.154 271.918,220.563 260.347,212.675 256.716 C 210.834 255.869,192.353 255.229,188.634 255.884 " stroke="none" fill="#2c146c" fill-rule="evenodd"></path></g></svg>